<?xml version="1.0" encoding="UTF-8"?>
<!DOCTYPE svg PUBLIC "-//W3C//DTD SVG 1.1//EN" "http://www.w3.org/Graphics/SVG/1.1/DTD/svg11.dtd">
<!-- Creator: CorelDRAW 2020 (64-Bit) -->
<svg xmlns="http://www.w3.org/2000/svg" xml:space="preserve" width="210mm" height="297mm" version="1.1" style="shape-rendering:geometricPrecision; text-rendering:geometricPrecision; image-rendering:optimizeQuality; fill-rule:evenodd; clip-rule:evenodd"
viewBox="0 0 21000 29700"
 xmlns:xlink="http://www.w3.org/1999/xlink"
 xmlns:xodm="http://www.corel.com/coreldraw/odm/2003">
 <defs>
  <style type="text/css">
   <![CDATA[
    .str2 {stroke:black;stroke-width:50;stroke-miterlimit:22.9256}
    .str3 {stroke:#2B2A29;stroke-width:25;stroke-miterlimit:22.9256}
    .str4 {stroke:#2B2A29;stroke-width:20;stroke-miterlimit:22.9256}
    .str0 {stroke:black;stroke-width:20;stroke-miterlimit:22.9256}
    .str1 {stroke:black;stroke-width:7.62;stroke-miterlimit:22.9256}
    .fil6 {fill:none}
    .fil1 {fill:none;fill-rule:nonzero}
    .fil7 {fill:#2B2A29}
    .fil5 {fill:black}
    .fil4 {fill:#996633}
    .fil3 {fill:#CCCC33}
    .fil2 {fill:#FFFF99}
    .fil0 {fill:black;fill-rule:nonzero}
   ]]>
  </style>
 </defs>
 <g id="Vrstva_x0020_1">
  <metadata id="CorelCorpID_0Corel-Layer"/>
  <path class="fil0" d="M11203.93 14489.17c0,-19.07 -1.39,-39.5 -2.79,-61.3 -1.39,-20.43 -4.18,-40.86 -11.15,-59.93 -5.58,-17.71 -13.95,-34.06 -26.5,-46.31 -11.15,-12.26 -26.49,-17.71 -47.41,-17.71 -27.89,0 -50.2,9.53 -68.33,28.6 -16.73,19.07 -29.28,42.23 -39.04,68.11 -9.76,25.88 -15.34,53.12 -19.52,81.73 -2.79,28.6 -4.18,53.12 -4.18,72.19 0,14.99 1.39,35.42 5.57,59.94 4.19,24.52 9.76,47.67 18.13,70.83 9.76,23.15 20.92,42.22 36.26,58.57 15.33,16.35 33.46,24.52 54.38,24.52 20.92,0 39.04,-9.54 52.99,-28.61 13.94,-17.7 25.1,-40.86 32.07,-66.74 6.97,-25.88 12.55,-51.76 15.34,-77.64 2.79,-25.88 4.18,-47.68 4.18,-62.66l0 -43.59zm-200.8 53.12c0,-16.34 1.4,-36.77 5.58,-61.29 4.18,-24.52 9.76,-47.68 18.13,-70.83 9.76,-23.16 20.91,-42.23 36.25,-58.58 15.34,-16.34 33.47,-24.52 55.78,-24.52 15.34,0 27.89,8.18 37.65,23.16 9.76,14.98 15.34,32.69 19.52,53.12 4.19,20.44 6.97,40.87 8.37,61.3 1.39,20.43 1.39,36.78 1.39,46.31 0,12.26 -1.39,31.33 -2.79,57.21 -1.39,25.88 -5.57,50.4 -12.55,76.28 -5.57,25.88 -13.94,47.68 -25.1,66.75 -11.15,20.43 -26.49,29.97 -46.01,29.97 -20.92,0 -37.65,-8.18 -50.2,-23.16 -12.55,-14.98 -22.31,-34.05 -29.28,-55.85 -6.98,-20.43 -11.16,-42.22 -13.95,-65.38 -1.39,-23.16 -2.79,-40.87 -2.79,-54.49z"/>
  <path class="fil0" d="M10706.12 14084.61c-4.18,2.73 -8.37,9.54 -9.76,20.43 -1.4,10.9 -1.4,21.8 -1.4,34.06l0 29.97c-40.43,-9.54 -80.87,-17.71 -121.31,-23.16 -40.44,-5.45 -80.88,-9.54 -122.71,-10.9l-9.76 9.54 8.37 9.53c41.83,2.73 82.27,6.81 122.7,12.26 40.44,6.81 80.88,13.62 121.32,23.16 -1.39,92.62 -6.97,183.89 -13.94,275.15 -6.98,91.26 -18.13,182.53 -33.47,273.79l9.76 12.26 9.76 -9.53c13.95,-91.27 25.1,-181.17 32.07,-272.43 8.37,-91.27 13.95,-182.53 16.74,-275.16 12.55,4.09 30.67,9.54 52.98,16.35 22.32,6.81 44.63,14.98 68.33,21.79 23.71,6.81 44.62,13.63 65.54,20.44 20.92,6.81 34.86,9.53 43.23,10.89l11.15 -9.53c-1.39,-9.54 -12.55,-17.71 -33.46,-27.24 -20.92,-8.18 -46.02,-16.35 -73.91,-23.16 -27.89,-6.81 -54.38,-13.62 -80.88,-19.07 -25.09,-5.45 -41.83,-9.54 -51.59,-10.9l1.4 -79 -11.16 -9.54z"/>
  <path class="fil0" d="M10517.89 14489.17c0,-19.07 -1.4,-39.5 -2.79,-61.3 -1.4,-20.43 -4.19,-40.86 -11.16,-59.93 -5.58,-17.71 -13.94,-34.06 -26.49,-46.31 -11.16,-12.26 -26.5,-17.71 -47.41,-17.71 -27.89,0 -50.2,9.53 -68.33,28.6 -16.73,19.07 -29.28,42.23 -39.04,68.11 -9.76,25.88 -15.34,53.12 -19.53,81.73 -2.78,28.6 -4.18,53.12 -4.18,72.19 0,14.99 1.4,35.42 5.58,59.94 4.18,24.52 9.76,47.67 18.13,70.83 9.76,23.15 20.91,42.22 36.25,58.57 15.34,16.35 33.47,24.52 54.38,24.52 20.92,0 39.05,-9.54 52.99,-28.61 13.95,-17.7 25.1,-40.86 32.07,-66.74 6.98,-25.88 12.55,-51.76 15.34,-77.64 2.79,-25.88 4.19,-47.68 4.19,-62.66l0 -43.59zm-200.8 53.12c0,-16.34 1.39,-36.77 5.58,-61.29 4.18,-24.52 9.76,-47.68 18.12,-70.83 9.77,-23.16 20.92,-42.23 36.26,-58.58 15.34,-16.34 33.47,-24.52 55.78,-24.52 15.34,0 27.89,8.18 37.65,23.16 9.76,14.98 15.33,32.69 19.52,53.12 4.18,20.44 6.97,40.87 8.36,61.3 1.4,20.43 1.4,36.78 1.4,46.31 0,12.26 -1.4,31.33 -2.79,57.21 -1.39,25.88 -5.58,50.4 -12.55,76.28 -5.58,25.88 -13.94,47.68 -25.1,66.75 -11.15,20.43 -26.49,29.97 -46.02,29.97 -20.91,0 -37.64,-8.18 -50.19,-23.16 -12.55,-14.98 -22.32,-34.05 -29.29,-55.85 -6.97,-20.43 -11.15,-42.22 -13.94,-65.38 -1.4,-23.16 -2.79,-40.87 -2.79,-54.49z"/>
  <path class="fil0" d="M10020.08 14084.61c-4.19,2.73 -8.37,9.54 -9.77,20.43 -1.39,10.9 -1.39,21.8 -1.39,34.06l0 29.97c-40.44,-9.54 -80.88,-17.71 -121.32,-23.16 -40.43,-5.45 -80.87,-9.54 -122.7,-10.9l-9.77 9.54 8.37 9.53c41.83,2.73 82.27,6.81 122.71,12.26 40.44,6.81 80.88,13.62 121.32,23.16 -1.4,92.62 -6.98,183.89 -13.95,275.15 -6.97,91.26 -18.13,182.53 -33.46,273.79l9.76 12.26 9.76 -9.53c13.94,-91.27 25.1,-181.17 32.07,-272.43 8.37,-91.27 13.94,-182.53 16.73,-275.16 12.55,4.09 30.68,9.54 52.99,16.35 22.31,6.81 44.62,14.98 68.33,21.79 23.7,6.81 44.62,13.63 65.54,20.44 20.91,6.81 34.86,9.53 43.22,10.89l11.16 -9.53c-1.4,-9.54 -12.55,-17.71 -33.47,-27.24 -20.91,-8.18 -46.01,-16.35 -73.9,-23.16 -27.89,-6.81 -54.39,-13.62 -80.88,-19.07 -25.1,-5.45 -41.83,-9.54 -51.59,-10.9l1.39 -79 -11.15 -9.54z"/>
  <path class="fil1 str0" d="M10710.98 13245.88c802.9,0 1453.78,655.31 1453.78,1463.67 0,808.36 -650.88,1463.67 -1453.78,1463.67 -802.9,0 -1453.78,-655.31 -1453.78,-1463.67 0,-808.36 650.88,-1463.67 1453.78,-1463.67z"/>
  <path class="fil1 str0" d="M10513.18 13245.88c802.91,0 1453.79,655.31 1453.79,1463.67 0,808.36 -650.88,1463.67 -1453.79,1463.67 -802.9,0 -1453.78,-655.31 -1453.78,-1463.67 0,-808.36 650.88,-1463.67 1453.78,-1463.67z"/>
  <path class="fil2 str1" d="M9257.2 14709.55c0,-774.9 598.1,-1409.15 1354.88,-1460.33 -32.68,-2.22 -65.66,-3.34 -98.9,-3.34 -802.9,0 -1453.78,655.31 -1453.78,1463.67 0,808.36 650.88,1463.67 1453.78,1463.67 33.24,0 66.22,-1.13 98.9,-3.34 -756.78,-51.18 -1354.88,-685.43 -1354.88,-1460.33z"/>
  <path class="fil3 str1" d="M9257.2 14709.55c0,-774.9 598.1,-1409.15 1354.88,-1460.33 -32.68,-2.22 -65.66,-3.34 -98.9,-3.34 -802.9,0 -1453.78,655.31 -1453.78,1463.67 0,808.36 650.88,1463.67 1453.78,1463.67 33.24,0 66.22,-1.13 98.9,-3.34 -756.78,-51.18 -1354.88,-685.43 -1354.88,-1460.33z"/>
  <path class="fil4 str1" d="M9257.2 14709.55c0,-774.9 598.1,-1409.15 1354.88,-1460.33 -32.68,-2.22 -65.66,-3.34 -98.9,-3.34 -802.9,0 -1453.78,655.31 -1453.78,1463.67 0,808.36 650.88,1463.67 1453.78,1463.67 33.24,0 66.22,-1.13 98.9,-3.34 -756.78,-51.18 -1354.88,-685.43 -1354.88,-1460.33z"/>
  <path class="fil5 str1" d="M9257.2 14709.55c0,-774.9 598.1,-1409.15 1354.88,-1460.33 -32.68,-2.22 -65.66,-3.34 -98.9,-3.34 -802.9,0 -1453.78,655.31 -1453.78,1463.67 0,808.36 650.88,1463.67 1453.78,1463.67 33.24,0 66.22,-1.13 98.9,-3.34 -756.78,-51.18 -1354.88,-685.43 -1354.88,-1460.33z"/>
  <path class="fil5 str1" d="M10612.08 13249.22c756.78,51.18 1354.89,685.43 1354.89,1460.33 0,774.9 -598.11,1409.15 -1354.89,1460.33 32.68,2.21 65.66,3.34 98.9,3.34 802.9,0 1453.78,-655.31 1453.78,-1463.67 0,-808.36 -650.88,-1463.67 -1453.78,-1463.67 -33.24,0 -66.22,1.12 -98.9,3.34z"/>
  <path class="fil6 str0" d="M10513.18 13127.21c895.76,0 1621.91,708.43 1621.91,1582.34 0,873.9 -726.15,1582.34 -1621.91,1582.34 -895.75,0 -1621.9,-708.44 -1621.9,-1582.34 0,-873.91 726.15,-1582.34 1621.9,-1582.34z"/>
  <path class="fil6 str2" d="M10785.13 13057.96c895.76,0 1621.91,708.44 1621.91,1582.35 0,873.9 -726.15,1582.34 -1621.91,1582.34 -895.75,0 -1621.9,-708.44 -1621.9,-1582.34 0,-873.91 726.15,-1582.35 1621.9,-1582.35z"/>
  <path class="fil6 str0" d="M10636.79 13394.22c895.75,0 1621.91,708.43 1621.91,1582.34 0,873.9 -726.16,1582.34 -1621.91,1582.34 -895.75,0 -1621.9,-708.44 -1621.9,-1582.34 0,-873.91 726.15,-1582.34 1621.9,-1582.34z"/>
  <path class="fil6 str3" d="M10191.76 12929.4c895.75,0 1621.9,708.44 1621.9,1582.34 0,873.91 -726.15,1582.35 -1621.9,1582.35 -895.76,0 -1621.91,-708.44 -1621.91,-1582.35 0,-873.9 726.15,-1582.34 1621.91,-1582.34z"/>
  <path class="fil6 str2" d="M10448.89 13473.33c895.75,0 1621.9,708.44 1621.9,1582.35 0,873.9 -726.15,1582.34 -1621.9,1582.34 -895.76,0 -1621.91,-708.44 -1621.91,-1582.34 0,-873.91 726.15,-1582.35 1621.91,-1582.35z"/>
  <path class="fil6 str3" d="M10171.98 13038.19c895.75,0 1621.9,708.44 1621.9,1582.34 0,873.91 -726.15,1582.35 -1621.9,1582.35 -895.76,0 -1621.91,-708.44 -1621.91,-1582.35 0,-873.9 726.15,-1582.34 1621.91,-1582.34z"/>
  <path class="fil0" d="M9984.07 15088.2c1.07,2.15 1.07,4.66 -0.36,7.16 -1.43,2.87 -3.58,5.02 -6.45,7.16 -0.36,0.36 -0.71,0.36 -1.43,0.72 -0.36,0.36 -1.07,0.72 -1.79,1.08l0.36 0c-1.08,0.71 -2.51,1.43 -4.66,2.5 -2.15,0.72 -5.37,2.87 -10.03,5.37 -3.58,2.15 -8.23,5.02 -13.6,8.6 -5.73,3.58 -12.54,7.88 -21.13,13.25 -8.24,5.01 -17.91,11.46 -29.37,18.98 -11.46,7.52 -24.35,16.47 -39.39,26.5 -8.23,5.73 -16.83,11.81 -25.78,18.26 -8.95,6.8 -18.62,13.97 -29.01,21.84 -9.31,7.17 -19.34,15.05 -30.08,23.28 -10.74,8.6 -21.84,17.19 -33.3,26.5 -0.72,2.15 -1.43,4.3 -1.79,6.45 -0.72,2.15 -1.08,4.29 -1.79,6.44 -2.87,9.67 -6.09,18.27 -10.03,26.5 -3.94,8.24 -8.24,15.04 -13.25,20.77 -2.51,2.87 -5.37,5.37 -8.24,7.88 -2.86,2.15 -6.08,3.94 -9.31,5.37 -2.86,1.08 -6.08,2.15 -9.31,2.87 -3.22,0.71 -6.44,1.07 -9.31,1.43 -1.43,0 -2.86,-0.36 -4.3,-0.36 -1.43,0 -2.86,-0.36 -4.29,-0.36 -1.79,-0.35 -3.23,-1.07 -5.02,-2.14 -1.43,-1.08 -2.86,-2.51 -3.58,-4.66l0 0c-0.71,-1.79 -1.07,-3.58 -0.71,-5.37 0.35,-1.43 0.71,-2.87 1.07,-4.3 0.36,-1.43 1.07,-2.51 1.43,-3.58 0.72,-1.07 1.08,-1.79 1.79,-2.86 2.15,-3.59 4.66,-6.81 6.81,-9.67 2.5,-2.87 4.65,-5.73 6.8,-8.24 4.66,-4.66 8.95,-9.31 13.61,-13.61 4.65,-4.65 9.67,-8.95 15.04,-13.61 3.58,-3.22 7.52,-6.44 11.46,-9.66 3.94,-3.59 8.59,-7.17 13.97,-11.11 0.71,-4.29 1.43,-8.59 2.14,-12.53 0.72,-3.94 1.44,-7.88 2.15,-11.82 1.08,-6.8 1.79,-13.61 2.87,-20.41 0.71,-6.8 1.43,-12.89 2.15,-18.62 0,-1.79 0.35,-3.22 0.35,-5.01 0.36,-1.79 0.36,-3.59 0.72,-5.02 1.07,-9.67 2.15,-17.9 2.87,-25.78 1.07,-7.52 1.79,-14.68 2.86,-20.77 2.51,-13.97 5.01,-24.71 7.88,-31.87 1.07,-3.23 2.15,-6.09 3.58,-8.24 1.43,-2.51 2.15,-3.94 2.86,-5.01 2.15,-3.23 5.38,-5.02 8.96,-6.09l-0.36 0c2.15,-0.36 3.94,-0.36 5.37,0.36 1.43,0.71 2.51,1.79 3.22,2.86 0.36,1.08 0.72,2.51 0.36,3.58 0,1.08 -0.36,2.51 -0.72,3.58 -0.71,1.08 -1.07,1.8 -1.43,2.87 -0.71,0.72 -1.07,1.79 -1.79,2.51 -0.71,0.71 -0.71,1.07 -0.71,1.07 -0.36,0.72 -1.08,1.08 -1.44,1.79 -0.35,0.72 -1.07,1.79 -1.43,3.22 -1.07,1.79 -2.15,4.3 -3.58,7.88 -1.43,3.23 -2.51,7.52 -3.94,13.25 -1.43,5.73 -2.86,12.89 -4.65,21.49 -1.44,8.59 -2.87,19.34 -4.66,32.23 -0.72,3.94 -1.07,7.88 -1.43,11.82 -0.72,4.65 -1.43,10.02 -2.15,15.39 -0.72,5.38 -1.79,10.75 -2.51,16.48 -0.36,0.71 -0.36,1.43 -0.71,2.15 0,0.71 0,1.43 -0.36,2.5 -0.36,1.79 -0.72,3.23 -0.72,4.3 0,1.07 -0.36,2.15 -0.36,3.22 0,1.08 -0.35,2.15 -0.35,3.23 -0.36,1.43 -0.72,3.22 -1.08,5.37 1.08,-1.08 2.15,-1.79 2.87,-2.51 1.07,-0.72 2.14,-1.79 3.58,-2.51 8.59,-6.08 16.11,-11.81 22.92,-16.47 6.8,-5.01 13.25,-9.31 18.98,-13.25l-0.36 0c3.58,-2.51 6.8,-4.65 9.67,-6.8 2.86,-2.15 5.73,-4.3 8.59,-6.09 3.58,-2.51 6.8,-5.01 10.03,-7.16 3.58,-2.51 6.8,-4.66 10.02,-6.81l-0.35 0c3.58,-2.86 7.16,-5.37 11.1,-7.88 3.94,-2.86 7.88,-5.37 12.17,-8.59 12.18,-8.59 22.92,-16.11 32.23,-22.56 9.67,-6.45 17.91,-12.18 25.07,-17.19 7.52,-5.01 13.97,-9.67 19.7,-13.61 5.73,-3.94 10.02,-7.16 13.6,-10.02 2.87,-1.79 5.38,-3.59 7.52,-5.02 1.79,-1.43 3.59,-2.86 5.38,-3.94 2.14,-1.79 4.29,-3.22 6.08,-4.65 2.15,-1.08 3.94,-2.51 6.45,-3.94 2.86,-2.15 6.09,-3.22 8.95,-3.22 3.22,0 5.37,1.07 6.81,2.86zm-276.82 230.26c3.58,-5.01 6.45,-10.74 9.31,-17.19 2.87,-6.44 5.37,-13.61 7.52,-21.13 -6.09,4.66 -11.1,8.96 -15.75,12.9 -4.3,3.58 -8.24,7.16 -12.18,10.38 0,0.36 -0.36,0.36 -0.72,0.72 -0.35,0.36 -0.35,0.36 -0.71,0.71 -3.94,3.58 -7.52,7.17 -11.1,10.39 -3.58,3.22 -7.17,7.16 -10.75,11.46 -0.36,0.71 -1.07,1.79 -1.79,2.86 -0.71,1.08 -1.07,1.79 -1.79,2.87 -0.36,0.71 -0.71,1.43 -1.07,2.15 0,0.35 0,0.71 0,1.07 0,0 0.71,0.36 1.43,0.36 1.07,0 2.15,0.36 3.58,0.36 3.58,0.36 7.52,0 11.1,-1.08 3.94,-1.07 7.88,-2.86 11.82,-5.73 3.94,-2.86 7.88,-6.44 11.1,-11.1zm180.49 -349.15c3.93,-1.43 6.8,-1.79 8.23,-1.79 1.79,0.36 2.15,1.07 1.43,2.51 -0.35,1.43 -2.14,3.58 -5.01,6.08 -2.51,2.87 -6.09,5.73 -10.74,9.31 -4.66,3.59 -10.39,7.52 -16.83,11.82 -6.45,4.3 -13.61,8.6 -21.49,12.89l0 0c-3.94,2.15 -8.24,3.94 -12.89,5.73l0.36 0c-1.44,0.72 -2.87,1.08 -4.3,1.44 -1.07,0.35 -2.51,0.71 -3.58,1.07 -0.36,0 -0.36,0 -0.72,0 -0.36,0 -0.36,0 -0.71,0l0.35 0c-0.71,0.36 -1.43,0.36 -2.14,0.36 -0.72,0 -1.44,0 -2.51,0 -0.72,0 -1.08,0 -2.15,-0.36 -0.72,0 -1.43,0 -1.79,-0.36 -0.36,0 -0.72,-0.36 -0.72,-0.36 0,0 -0.35,0 -0.35,0 -0.72,-0.35 -1.08,-0.35 -1.44,-0.71 -2.86,-1.44 -5.37,-3.23 -7.16,-5.02 -1.79,-1.79 -3.58,-3.22 -5.01,-5.01 -1.43,-1.79 -2.87,-3.22 -3.94,-5.01 -1.43,-1.79 -2.51,-3.23 -3.22,-4.66 -4.3,-6.44 -7.17,-12.53 -8.96,-17.55 -1.79,-5.37 -2.5,-8.95 -1.79,-11.1 1.08,-3.22 2.87,-4.65 5.37,-5.01 2.51,0 5.02,1.07 7.52,3.22 1.79,1.79 3.23,4.3 4.3,7.17 1.43,3.22 2.15,6.8 2.51,10.74 0,1.07 0,2.5 0.71,3.94 0.36,1.79 1.08,3.22 1.79,4.65 1.08,1.79 2.15,3.94 3.59,6.09 1.43,2.15 3.22,4.3 5.37,6.09 0,0.36 0.36,0.71 1.07,1.07 0.36,0 0.72,0.36 1.43,0.72 0.36,0.71 1.08,1.07 2.15,1.43 0.72,0 1.44,0 2.15,0 1.79,0 3.22,-0.36 4.66,-0.72 1.79,-0.35 3.22,-0.71 4.65,-1.43 2.87,-1.07 5.73,-2.5 8.6,-3.94 2.86,-1.43 5.73,-2.86 8.95,-4.65l0 0c5.73,-3.22 11.1,-6.45 15.76,-9.67 5.01,-3.22 9.31,-6.45 13.25,-9.31 4.29,-2.87 8.23,-6.09 11.81,-8.95l1.44 -0.72z"/>
  <path class="fil0" d="M9964.01 15100.02c1.08,-2.51 2.51,-5.02 3.94,-7.16 1.43,-1.79 2.87,-3.59 4.3,-5.02 1.43,-1.43 2.86,-2.15 3.94,-2.86 1.43,-0.36 2.86,-0.36 3.94,0 0.71,0.36 1.43,1.43 2.15,2.86 0.35,1.08 0.35,2.87 0.35,5.02 0,2.14 -0.35,4.29 -1.07,6.44 -0.72,2.51 -1.43,5.02 -2.51,7.52 -0.36,1.08 -0.71,1.79 -1.07,2.87 -0.36,0.71 -1.08,1.79 -1.43,2.5 -0.72,1.08 -1.08,2.15 -1.79,3.23 -0.72,1.43 -1.44,2.86 -2.51,4.65 -0.72,2.15 -2.15,4.3 -3.22,7.16 -1.44,2.87 -3.23,6.09 -5.02,10.03 -0.71,1.08 -1.07,2.15 -1.79,3.58 -0.36,1.08 -1.07,2.15 -1.43,3.58 -3.22,6.45 -6.8,14.33 -11.1,24 -4.3,9.31 -9.31,20.41 -14.68,32.94 -0.36,0.72 -0.72,1.79 -1.08,2.51 -0.36,0.71 -1.07,1.79 -1.43,2.86 -6.45,15.04 -14.33,32.95 -22.92,53.72 -8.59,20.41 -18.26,44.4 -29.01,71.98 -2.86,7.88 -5.73,16.11 -8.59,24.71 -2.87,8.59 -5.73,17.54 -8.24,26.5 -0.36,1.79 -1.07,3.58 -1.43,5.73 -0.36,1.79 -1.07,3.58 -1.43,5.73 2.15,-4.3 3.94,-8.24 6.09,-12.54 1.79,-4.29 3.93,-8.95 5.73,-13.25 7.52,-16.83 15.75,-34.38 24.7,-53 8.96,-18.62 18.63,-37.6 29.37,-56.58 8.59,-15.4 16.83,-28.65 24.35,-40.11 7.52,-11.81 14.32,-21.48 20.41,-29.72 5.73,-8.23 11.82,-16.11 17.91,-23.27 6.09,-7.53 12.53,-14.69 19.33,-21.85 7.53,-7.88 15.76,-15.76 24.71,-22.92l0 0.36c5.02,-3.94 10.39,-8.24 16.12,-12.18 6.09,-4.29 12.89,-8.23 20.41,-11.81 3.94,-1.79 7.88,-3.58 12.18,-5.02 4.65,-1.79 8.95,-3.22 13.96,-4.29 6.45,-1.44 13.61,-2.15 21.49,-2.15 1.79,0 3.58,0 5.37,0.36 2.15,0 3.94,0 5.73,0.35 0,0 0.36,0 0.72,0.36 0.35,0 0.71,0 1.07,0 0.36,0 1.08,0 2.15,0.36 1.07,0.36 1.79,0.72 2.86,1.07 0.72,0.72 1.44,1.08 2.15,2.15 0.36,0.72 0.72,1.44 1.08,2.15 0.71,1.79 1.07,3.22 1.07,4.66 0,2.15 -0.36,3.94 -0.71,5.37 -0.72,1.79 -1.08,3.22 -1.8,4.65 0,0.36 0,0.36 0,0.72 0,0 -0.35,0 -0.35,0.36l0 -0.36c-1.44,3.22 -2.87,6.45 -4.3,8.95 -1.43,2.87 -3.22,5.73 -4.66,8.24 -3.58,5.73 -7.52,11.1 -11.46,16.83 -3.93,5.73 -8.23,11.46 -12.53,17.55l-5.37 6.8c-1.43,1.79 -2.87,3.58 -4.3,5.37 -1.43,1.79 -2.86,3.58 -3.94,5.37 -1.43,1.44 -2.5,2.87 -3.58,3.94 -1.07,1.44 -2.15,2.87 -3.22,4.3l36.17 -13.25 -0.36 0c12.53,-2.15 24.35,-4.65 35.09,-7.52 10.75,-2.51 20.77,-5.37 30.08,-8.24 19.34,-6.08 36.53,-11.81 51.21,-17.54 14.69,-6.09 27.58,-11.46 38.68,-16.48 11.1,-5.01 20.41,-9.66 28.29,-13.6 7.88,-3.94 14.32,-7.17 19.69,-10.03l0 0c5.02,-2.87 9.32,-5.01 12.18,-6.8 2.87,-1.44 5.01,-2.87 6.09,-3.59 5.01,-2.5 9.31,-4.29 13.61,-5.01 3.94,-0.72 6.8,0 8.23,1.79 0.36,1.08 0.72,2.15 0.36,3.94 -0.36,1.43 -1.43,2.87 -2.51,4.66 -1.07,1.43 -2.86,3.22 -4.65,4.65 -2.15,1.79 -4.3,3.22 -6.81,4.66l0 -0.36c-1.43,1.07 -2.86,1.79 -5.01,2.86 -1.79,1.08 -4.65,2.51 -8.24,4.3 -0.71,0.36 -1.07,0.36 -1.79,0.72 -0.71,0.36 -1.43,0.71 -2.14,1.07 -3.59,1.79 -7.88,3.94 -13.61,6.81 -5.37,2.5 -12.18,5.73 -20.06,9.31 -10.02,4.29 -21.84,9.67 -36.52,15.39 -14.33,6.09 -31.52,12.54 -51.93,18.98 -10.74,3.23 -21.84,6.45 -34.02,10.03 -12.17,3.22 -25.42,6.09 -39.03,8.95 -2.15,0.36 -5.01,1.08 -8.6,2.51 -3.58,1.43 -7.87,2.87 -12.17,4.3 -4.3,1.43 -8.95,3.22 -13.61,4.65 -5.01,1.44 -9.31,2.51 -13.97,3.58 -4.29,0.72 -8.23,1.08 -11.81,1.08 -3.23,0 -6.09,-1.08 -8.24,-2.51 -1.79,-1.79 -2.86,-3.22 -3.22,-4.3 -0.36,-1.43 0.36,-2.86 1.43,-4.29 1.07,-1.44 2.51,-2.87 4.66,-5.02 2.14,-1.79 4.29,-3.94 7.16,-6.44 2.5,-2.51 5.37,-5.37 8.23,-8.95 2.87,-3.59 6.09,-7.53 8.96,-12.54 1.79,-3.58 3.94,-6.8 6.44,-10.38 2.51,-3.23 4.66,-6.45 7.16,-9.67 2.51,-3.23 4.66,-6.45 7.17,-9.31 2.15,-3.23 4.29,-6.09 6.08,-8.96 0.72,-1.43 1.44,-2.86 2.51,-4.65 0.72,-1.43 1.43,-3.22 2.15,-4.66 0.72,-1.07 1.07,-2.5 1.79,-3.94 0.36,-1.43 0.72,-2.86 0.72,-4.29l0 0c0,0 -0.36,0 -0.72,-0.36 -0.36,0 -0.72,0 -0.72,0 -0.35,0 -0.71,0 -1.07,0 -0.36,0 -0.72,0 -1.07,-0.36 -0.36,0 -0.36,0 -1.08,0 -0.36,-0.36 -0.72,-0.36 -0.72,-0.36 -1.43,0 -2.5,0 -3.58,0 -1.07,-0.36 -2.14,0 -3.22,0 -6.09,0 -11.82,0.72 -17.19,1.79 -5.73,1.08 -10.74,2.51 -15.76,4.3 -5.01,1.79 -9.31,3.94 -13.6,6.45 -4.3,2.15 -8.24,4.65 -12.18,6.8 -7.52,5.37 -14.32,10.39 -20.05,15.4 -5.73,5.37 -11.1,10.38 -15.76,15.04l0.36 0c-5.01,5.01 -9.31,10.03 -13.25,14.68 -3.94,4.66 -7.52,8.95 -10.74,12.89 -6.45,8.6 -12.54,17.55 -18.98,26.5 -6.09,8.96 -12.18,18.62 -18.27,28.65 -6.44,10.39 -13.6,22.56 -21.84,36.53 -7.88,13.61 -16.83,30.08 -26.5,48.7 -5.73,10.74 -10.74,21.13 -15.4,30.44 -4.65,9.31 -8.95,18.26 -12.89,26.5 -0.72,1.43 -1.43,2.86 -2.15,4.3 -0.72,1.43 -1.43,2.86 -2.15,4.29 -2.15,4.3 -4.3,8.96 -6.44,13.25 -2.15,4.3 -3.94,8.6 -6.09,12.54 0,0.36 -0.36,1.07 -0.72,1.43 -0.36,0.36 -0.71,1.07 -1.07,1.79 -1.44,2.51 -2.87,5.37 -4.66,8.24 0,0 -0.36,0 -0.36,0.35 0,0.36 -0.35,0.72 -0.71,1.08 0,0 0,0 -0.36,0.36 0,0.36 -0.72,0.71 -1.79,1.79l0 0c-0.36,0.36 -1.08,1.07 -1.79,1.43 -0.36,0.36 -0.36,0.36 -0.72,0.36 0,0 -0.36,0.36 -1.07,0.36 -0.72,0.35 -1.43,0.35 -2.51,0 -1.07,-0.36 -1.79,-0.72 -2.51,-1.08 -0.35,-0.36 -0.71,-1.07 -1.07,-1.43 -0.36,-0.36 -0.72,-1.07 -1.07,-1.43l-0.72 -2.51 0 -0.36c0,-0.71 0,-1.43 0,-2.15 0,-0.71 0,-1.07 0,-1.79 0.36,-3.94 0.72,-7.88 1.43,-11.81 0.72,-3.94 1.79,-7.88 2.51,-11.46 1.07,-3.58 2.15,-6.81 2.86,-10.39 1.08,-3.58 2.15,-7.16 3.23,-10.38 2.15,-6.81 4.29,-13.61 6.8,-21.13 2.51,-7.16 5.37,-14.68 7.88,-22.2 9.67,-25.07 18.26,-47.27 25.78,-66.25 7.88,-18.98 14.68,-35.46 20.41,-49.42 2.87,-6.81 5.38,-12.89 7.52,-18.27 2.51,-5.73 4.66,-11.1 6.45,-16.11 2.15,-5.01 4.3,-9.67 6.09,-14.68 2.15,-4.66 3.94,-8.6 5.37,-12.18 2.15,-4.65 3.94,-8.95 5.01,-12.53 1.44,-3.58 2.87,-6.81 3.94,-9.67 1.08,-2.51 2.15,-5.01 3.23,-7.16 1.07,-2.51 1.79,-4.3 2.86,-6.45 0.72,-2.15 1.79,-3.94 2.51,-6.09 0.71,-1.79 1.79,-3.94 2.86,-6.44z"/>
  <path class="fil0" d="M10347.9 15084.26c2.51,-0.72 5.01,-0.36 7.16,1.08 2.15,1.43 3.23,3.22 3.58,5.37 0.36,2.5 0,4.29 -1.43,6.08 -1.43,1.8 -3.58,3.23 -5.73,3.59l0 0c-0.71,0.35 -1.07,0.35 -1.43,0.35 0,0 -0.72,0 -1.08,0 -0.71,0 -1.43,0.36 -2.86,0.36 -1.43,0 -3.22,0.36 -6.09,1.08 -0.36,0.35 -1.07,0.35 -1.43,0.35 -2.15,0.72 -4.66,1.44 -7.88,2.51 -2.86,1.08 -6.8,2.87 -10.74,5.73 -2.15,1.43 -4.3,3.22 -6.09,5.37 -2.15,1.79 -3.58,4.66 -4.66,7.52 -0.71,2.15 -1.07,4.3 -1.07,6.45 0,5.37 1.43,11.1 4.3,16.83 2.15,4.3 5.73,7.88 11.1,11.1 2.51,1.79 5.37,3.22 8.24,5.01 2.86,1.44 6.08,2.51 9.66,3.59 6.81,2.14 13.97,3.93 22.21,5.01 7.88,1.07 16.83,1.79 26.14,2.15 5.73,0 10.38,0 14.68,-0.36 4.3,-0.36 7.88,-0.36 11.46,-0.72l1.07 0c3.23,-0.36 6.45,-0.71 9.32,-0.71 3.22,-0.36 6.08,-0.72 9.66,-1.44 3.59,-0.71 7.17,-1.43 11.11,-2.14 3.93,-0.72 8.59,-1.79 13.6,-3.23l-0.36 0c5.38,-1.43 11.46,-3.58 18.27,-6.09 6.8,-2.5 14.68,-5.72 23.99,-10.02 8.95,-4.3 17.19,-8.6 24.35,-12.89 7.16,-4.3 13.97,-8.24 19.7,-12.18 6.09,-3.58 11.1,-7.16 15.4,-10.38 4.65,-3.23 8.23,-6.09 11.46,-8.6 6.08,-4.65 10.74,-8.24 13.6,-10.74 3.23,-2.51 5.02,-3.94 6.09,-5.02 2.15,-1.79 4.3,-2.5 6.81,-2.14 2.5,0 4.29,1.07 5.73,2.5 1.43,1.79 2.14,3.94 1.79,6.45 -0.36,2.51 -1.79,4.65 -3.58,6.09 -0.72,0.71 -1.44,1.07 -2.51,1.79 -1.08,0.71 -2.87,1.79 -5.02,3.58 -1.07,0.71 -2.5,1.43 -3.93,2.5 -1.44,1.08 -3.23,2.15 -5.02,3.23 -1.07,0.71 -2.15,1.43 -3.58,2.15 -1.07,0.71 -2.15,1.79 -3.58,2.5 -2.86,1.79 -5.73,3.58 -9.31,5.73 -3.22,2.15 -7.16,4.66 -11.1,7.16 -6.45,3.94 -13.97,8.24 -22.56,12.9 -8.6,4.65 -18.62,9.67 -30.44,15.04 -11.1,4.65 -20.41,8.59 -28.65,11.1 -7.88,2.86 -15.04,5.37 -21.13,7.16 -6.09,1.79 -11.46,3.22 -16.11,4.3 -4.66,1.07 -8.96,2.15 -12.54,3.22 -3.58,0.72 -7.52,1.43 -11.1,2.15 -3.58,0.36 -7.88,0.72 -12.17,1.43 -3.23,0.36 -7.17,0.36 -11.46,0.36 -3.58,0 -7.16,0 -11.1,-0.36 -3.94,-0.36 -8.24,-0.71 -12.54,-1.43 -9.67,-1.79 -18.26,-3.58 -25.06,-6.45 -7.17,-2.5 -13.25,-5.01 -17.91,-7.52 -2.15,-1.07 -4.66,-2.5 -7.16,-3.94 -2.15,-1.43 -4.66,-3.22 -6.45,-5.01 -2.15,-1.43 -4.3,-3.58 -6.09,-5.73 -1.79,-2.15 -3.58,-4.65 -5.01,-7.88l0 0c-3.58,-7.16 -5.37,-13.96 -5.37,-21.13 0,-2.14 0,-4.29 0.36,-6.08 1.07,-3.94 2.5,-7.52 4.65,-10.75 2.15,-3.22 3.94,-5.73 6.09,-7.87 3.94,-3.59 7.88,-6.09 11.46,-8.24 3.22,-1.79 6.09,-3.58 8.59,-4.66 0.36,0 0.72,-0.35 1.08,-0.71 2.51,-1.08 4.65,-1.79 6.09,-2.51 1.79,-0.72 3.22,-1.07 4.65,-1.79 1.08,-0.36 2.51,-0.72 3.58,-1.07 1.08,-0.36 2.51,-0.72 3.94,-1.08l0.36 0z"/>
  <path class="fil0" d="M10978.88 15086.05c2.87,-1.07 5.37,-1.43 8.24,-1.07 2.5,0.71 4.29,2.15 5.37,3.94l0 0c1.07,2.15 1.07,4.65 -0.36,6.8 -1.07,2.51 -3.22,4.3 -6.09,5.73 -0.36,0.36 -0.71,0.36 -1.43,0.36 -0.36,0 -0.72,0.36 -1.07,0.36 -1.08,0.35 -2.15,0.71 -3.59,1.43 -1.43,0.72 -4.29,1.79 -7.87,3.22 -3.58,1.43 -7.88,3.22 -13.25,5.37 -5.37,2.15 -12.18,5.38 -20.42,8.96 -6.44,2.86 -14.32,6.44 -23.27,10.38 -8.6,3.58 -18.62,8.24 -29.72,12.89 -3.94,1.79 -8.24,3.58 -12.54,5.73 -3.94,1.79 -8.59,3.94 -12.89,6.09 -3.58,1.79 -7.16,3.22 -10.74,5.01 -3.58,1.79 -7.52,3.23 -11.46,5.02 -4.66,2.15 -9.31,4.29 -13.97,6.08 -5.01,2.15 -10.03,4.3 -15.4,6.09 -5.37,2.15 -11.1,3.94 -16.83,5.73 -6.09,1.79 -12.53,2.87 -19.69,3.58 -2.51,0 -4.66,0 -7.17,-0.35 -2.5,0 -4.65,-0.72 -7.16,-1.44 -1.43,-0.71 -2.5,-1.07 -3.58,-1.79 -1.07,-0.71 -2.51,-1.79 -3.58,-2.86 -2.15,-2.15 -3.58,-4.66 -4.3,-7.16l0 0.35c-0.71,-2.15 -1.07,-4.29 -1.43,-6.44 0,-1.79 0,-3.58 0.36,-5.37 0,-2.15 0.36,-3.59 0.36,-3.94 0,-0.72 0.35,-1.44 0.71,-2.15l0.72 -2.51c1.43,-5.01 3.22,-9.67 5.01,-13.25 1.43,-3.94 3.23,-7.52 5.37,-11.46 1.79,-3.94 3.94,-8.23 6.45,-12.89 2.86,-4.65 5.73,-10.38 8.95,-16.47 -4.65,1.07 -9.31,2.5 -14.68,3.58 -5.37,1.07 -10.74,2.15 -16.83,3.22 -13.25,2.51 -25.43,3.94 -36.53,5.02 -11.46,0.71 -21.48,1.07 -30.79,1.07 -9.32,0 -17.91,-0.72 -25.07,-1.07 -7.16,-0.72 -13.61,-1.44 -18.98,-2.51 -10.03,-1.79 -17.55,-3.22 -22.56,-4.66 -5.02,-1.43 -8.6,-2.5 -10.39,-3.22l-0.36 0c-0.35,0 -0.35,0 -0.35,0 -3.23,-1.07 -5.73,-2.86 -7.17,-5.37 -1.43,-2.51 -1.79,-5.01 -0.71,-7.16l0 0c1.07,-1.79 2.86,-3.23 5.01,-3.94 2.51,-0.72 5.02,-0.36 7.88,0.36l0 0c1.07,0.35 2.15,0.71 2.51,0.71 0.36,0.36 0.36,0.36 0.36,0.36 0,0 0,0 -0.36,0 0,0 0,0 0,0 0.36,0.36 1.07,0.36 1.43,0.72 0.36,0.35 1.07,0.35 1.79,0.71 1.79,0.72 3.94,1.43 6.8,2.15 2.51,1.08 6.09,2.15 10.39,3.22 4.3,1.08 9.67,2.15 16.47,3.23 6.45,1.43 14.68,2.5 23.99,3.22 3.23,0.36 6.81,0.36 10.75,0.72 3.58,0 7.52,0 11.82,0 7.16,0 15.39,-0.36 23.99,-0.72 8.95,-0.72 18.62,-1.79 28.65,-3.58 7.52,-1.08 14.32,-2.51 20.77,-3.58 6.44,-1.43 12.17,-2.51 17.19,-3.94l-0.36 0c0.36,0 0.71,-0.36 1.07,-0.36 0.36,0 0.72,0 1.08,-0.36 1.43,0 2.86,-0.36 4.29,-0.36 1.44,0 2.51,0 3.58,0.72 0.72,0.72 1.08,1.79 1.08,3.58 -0.36,1.43 -1.43,3.94 -3.22,7.16l-0.72 1.08c-0.72,1.07 -1.07,2.15 -1.43,3.22 -0.36,0.72 -1.08,1.79 -1.44,2.87l0 -0.36c-0.71,1.07 -1.43,2.15 -1.79,3.22 -0.71,1.07 -1.07,2.15 -1.79,2.87l0.36 0c-3.58,7.16 -6.8,13.6 -8.95,18.97 -2.51,5.38 -4.66,10.39 -6.09,15.05 -0.71,2.14 -1.43,4.29 -2.15,6.44 -0.71,2.15 -1.07,4.3 -1.43,6.8 -0.36,1.08 -0.72,2.15 -0.72,3.23 0,1.07 0,2.15 0,2.86 0,1.79 0.36,3.58 1.08,5.02 0.36,1.07 1.79,1.79 3.58,2.14 1.79,0.72 4.3,0.72 6.8,0.36 3.23,0 7.17,-0.36 11.1,-1.07 3.94,-0.72 7.88,-1.79 12.18,-2.87 5.37,-1.43 10.74,-2.86 16.12,-4.65 5.37,-1.79 10.38,-3.22 14.68,-5.02 2.5,-1.07 5.01,-2.14 7.88,-3.22 2.5,-1.07 5.01,-1.79 7.16,-2.86 1.07,-0.36 2.5,-0.72 3.58,-1.08 1.07,-0.36 2.15,-0.71 3.22,-1.43 4.66,-1.79 8.95,-3.94 12.89,-5.73 3.94,-1.79 8.24,-3.58 12.9,-5.73 1.43,-0.71 3.22,-1.43 5.01,-2.15 2.15,-0.71 3.58,-1.79 5.37,-2.5 10.39,-4.66 20.05,-9.31 27.93,-12.9 8.24,-3.93 15.4,-7.52 21.49,-10.38 6.09,-3.22 11.46,-5.73 15.76,-8.24 4.29,-2.15 7.87,-3.94 10.74,-5.73 2.86,-1.43 5.37,-2.86 7.16,-3.58 2.15,-1.07 3.58,-2.15 5.01,-2.86 1.44,-0.72 2.87,-1.79 3.94,-2.15 1.44,-0.72 2.87,-1.43 4.3,-2.51z"/>
  <path class="fil0" d="M11286.85 15087.48c1.43,2.15 1.07,4.66 -0.36,7.88 -1.79,3.23 -4.29,6.09 -8.23,8.96 -0.72,0.35 -1.08,0.71 -1.79,1.07 -0.72,0.36 -1.44,0.72 -2.15,1.07 -0.72,0.36 -1.44,1.08 -2.15,1.44 -1.08,0.71 -2.15,1.43 -3.58,2.14 -1.43,1.08 -3.23,2.15 -5.37,3.59 -2.15,1.43 -4.66,3.22 -7.88,5.01 -0.72,0.72 -1.43,1.07 -2.15,1.43 -1.08,0.36 -1.79,1.08 -2.87,1.43l0.36 0c-5.01,3.23 -10.74,6.81 -17.9,10.75 -6.81,4.29 -15.4,8.95 -25.43,14.32 -6.09,3.22 -12.53,6.45 -19.69,10.03 -7.17,3.58 -15.04,6.8 -23.64,10.03 -8.95,3.58 -18.62,6.8 -29.01,9.66 -10.38,3.23 -21.84,5.02 -34.37,6.09 -1.79,0 -3.58,0 -5.73,0.36 -1.79,0 -3.58,0 -5.37,0 -5.38,0 -11.11,-0.36 -16.48,-1.07 -5.73,-1.08 -11.1,-2.51 -16.83,-4.66 -2.15,-0.72 -3.94,-1.43 -5.73,-2.51 -2.15,-1.07 -3.94,-2.15 -5.73,-3.58 -1.07,-0.71 -1.79,-1.43 -2.86,-2.5 -1.08,-1.08 -2.15,-2.15 -3.23,-3.94 -0.35,0 -0.35,-0.36 -0.71,-1.44 -0.36,-1.07 -0.72,-2.5 -0.72,-3.94 0,-0.71 0,-1.79 0.36,-2.5 0,-0.72 0.36,-1.79 0.72,-2.87l0 0.36c0.71,-2.15 1.79,-4.3 3.22,-6.09 1.07,-1.79 2.51,-3.58 3.94,-5.37 0,0 0,0 0.36,-0.36 0,-0.35 0.35,-0.35 0.35,-0.71 1.44,-1.43 2.51,-2.87 3.94,-4.3 1.08,-1.07 2.51,-2.51 3.94,-3.94 0.36,-0.36 0.72,-0.71 1.79,-1.43 -5.37,2.51 -10.02,5.01 -14.68,7.52 -4.65,2.15 -8.95,4.3 -12.89,6.45 -4.3,2.14 -8.24,4.29 -12.18,6.44 -3.94,2.15 -7.87,4.66 -12.17,6.8 -3.58,1.8 -7.16,3.94 -10.75,5.73 -3.22,2.15 -7.16,4.3 -11.1,6.81 -1.79,1.07 -3.94,2.15 -6.08,3.58 -1.79,1.43 -4.3,2.86 -6.81,4.66l0.36 -0.36c-1.07,1.07 -2.51,1.79 -3.58,2.5 -1.08,0.72 -2.51,1.79 -3.58,2.51l0.36 0c-0.36,0.36 -0.72,0.36 -1.08,0.72 -0.36,0.35 -0.71,0.71 -1.07,1.07 -0.72,0.36 -1.08,0.72 -1.08,0.72 -0.35,0 -0.35,0.36 -0.35,0.36 -0.72,0.35 -1.44,1.07 -2.15,1.43l-2.51 -0.36c-0.72,-0.72 -1.43,-1.07 -1.79,-1.07 -0.72,0 -1.79,-0.36 -3.58,-1.44l-2.51 -2.5c0,-0.36 0,-0.36 0,-0.72 0.36,0 0.36,-0.36 0.36,-0.72 3.22,-12.89 7.88,-27.57 13.61,-43.68 5.73,-16.48 12.89,-35.1 21.48,-56.59 8.96,-21.84 17.55,-41.54 25.07,-59.44 7.88,-17.55 15.04,-33.66 21.85,-48.34 5.37,-12.18 10.38,-23.64 15.39,-34.38 5.02,-10.75 9.31,-20.06 12.9,-27.94 0.71,-1.07 1.07,-2.5 1.43,-3.58 0.71,-1.07 1.07,-2.14 1.79,-3.22l0 0c3.94,-8.59 7.52,-16.11 10.38,-22.56 2.87,-6.09 5.38,-11.46 7.52,-15.76 1.79,-4.29 3.58,-7.52 4.66,-10.02 1.07,-2.51 2.15,-3.94 2.51,-5.02 1.07,-2.15 2.14,-3.94 3.58,-5.73 1.07,-1.43 2.5,-2.86 3.94,-3.94 1.43,-1.07 2.5,-1.79 3.94,-2.14 1.07,-0.36 2.5,0 3.58,0.35 1.79,1.08 2.86,3.58 2.86,7.17 0,3.58 -1.07,7.52 -2.86,11.46l0 0c-0.72,1.07 -1.08,1.79 -1.79,2.86 -0.36,1.07 -1.08,2.51 -2.15,4.3 -1.44,2.5 -3.23,6.44 -5.73,11.1 -2.51,4.65 -6.09,11.82 -10.75,20.77 -0.35,0.36 -0.35,1.07 -0.71,1.43 -0.36,0.72 -0.36,1.08 -0.36,0.72 -3.94,7.52 -8.59,16.11 -13.61,26.5 -5.01,10.38 -11.1,22.92 -17.9,37.24 -7.17,15.4 -15.4,32.95 -24.71,53 -9.31,20.05 -19.7,43.33 -30.8,69.47 -5.37,12.18 -9.67,23.64 -13.97,34.02 -3.93,10.39 -7.52,20.41 -10.74,29.72 -1.43,4.3 -2.86,8.24 -3.94,12.18 -1.43,3.94 -2.5,7.88 -3.58,11.82 0.36,-0.36 0.72,-0.36 1.08,-0.72l-0.36 0c5.01,-3.58 10.02,-7.16 14.68,-10.03 5.01,-2.86 9.31,-5.73 13.61,-8.59 0.36,-0.36 1.07,-0.72 1.79,-1.07 0.71,-0.36 1.07,-0.72 1.79,-1.08l0 0c0.36,-0.36 1.07,-0.72 1.79,-1.07 1.07,-0.72 2.15,-1.08 3.22,-1.79 3.23,-2.15 6.81,-4.3 10.39,-6.45 3.22,-2.15 6.44,-3.94 9.67,-5.73 7.52,-4.3 15.04,-8.59 22.2,-12.53 7.16,-4.3 15.04,-8.6 23.63,-13.25 4.3,-2.15 8.96,-4.66 13.61,-7.16 5.01,-2.51 10.03,-5.02 15.76,-7.88l8.59 -4.3c1.44,-0.72 3.23,-1.43 4.66,-2.15 1.79,-0.72 3.22,-1.43 5.01,-2.51 0,0 0.36,0 0.72,-0.35 1.07,-0.36 1.79,-1.08 2.86,-1.79 1.08,-0.36 1.79,-1.08 2.87,-1.8l3.22 -2.14 4.66 -3.58c0.35,0.35 0.71,1.07 1.07,1.79 0.36,0.35 0.36,1.43 0.72,2.5 0.35,1.43 0.35,2.87 0.71,5.02 0.36,2.14 0.36,4.65 0.36,7.87l0 0 -0.72 0.36 1.44 -0.36c-2.51,1.08 -4.66,2.15 -6.81,3.23 -2.15,1.07 -4.65,2.5 -6.8,3.58 -7.52,5.01 -14.33,10.03 -21.13,14.68 -6.8,5.01 -12.89,9.31 -17.9,13.61 -3.23,2.51 -6.09,4.65 -8.96,7.16 -2.5,2.51 -5.01,4.66 -7.52,6.8 -2.15,2.15 -4.29,4.3 -6.44,6.45 -2.15,2.51 -3.58,4.66 -4.66,7.16l0 -0.36c-0.36,1.08 -0.72,1.44 -0.36,1.79 0,0.36 0,0.72 0.72,1.08 0.72,1.07 1.43,1.79 2.51,2.51 1.07,0.71 1.79,1.43 2.86,1.79 2.15,1.43 4.66,2.5 6.8,3.58 2.51,0.71 5.02,1.43 7.88,2.15 6.09,1.43 12.89,2.14 20.42,2.14 1.79,0 3.93,0 6.08,-0.35 2.51,0 4.66,0 7.17,-0.36 10.02,-1.08 19.33,-2.87 27.93,-5.37 8.59,-2.51 16.47,-5.37 23.99,-8.24 7.16,-2.51 13.97,-5.37 20.05,-8.59 6.45,-2.87 12.18,-5.73 17.19,-8.6 10.03,-5.37 18.98,-10.38 26.14,-14.68 7.17,-4.66 12.9,-8.24 17.55,-11.46 5.73,-3.94 10.39,-7.52 13.97,-10.03 3.22,-2.5 6.44,-4.65 8.95,-6.8 1.79,-1.08 3.22,-2.51 5.01,-3.58 1.44,-1.08 3.23,-2.15 5.02,-3.58l-0.36 0c3.94,-2.51 7.52,-4.3 11.1,-5.02 3.58,-0.71 6.09,0 7.52,1.79zm-329.46 95.26l0 -0.72c0,0 0,0.36 0,0.72z"/>
  <path class="fil0" d="M11547.91 15091.07c2.15,-1.08 4.65,-2.15 6.8,-2.87 2.15,-0.72 4.3,-1.07 6.09,-1.43 1.79,0 3.58,0 5.01,0.36 1.08,0.35 2.15,1.07 2.87,1.79 1.07,2.15 0.36,4.65 -2.15,7.87 -2.51,3.23 -5.73,6.09 -10.03,8.6l0 0c-0.71,0.72 -1.43,1.07 -2.14,1.43 -0.36,0 -1.44,0.72 -2.15,1.08 -0.72,0.35 -1.79,0.71 -2.87,1.43 -1.07,0.71 -2.51,1.43 -4.3,2.15 -1.79,1.07 -3.93,2.15 -6.44,3.94 -2.51,1.43 -5.73,3.22 -9.31,5.37l0.36 0c-5.73,3.58 -12.9,8.23 -21.49,13.96 -8.59,5.73 -18.98,13.61 -30.8,22.92 -6.09,5.02 -12.53,10.39 -19.69,16.12 -6.81,6.09 -14.33,12.53 -21.85,20.05 -7.88,7.52 -16.11,15.76 -24.35,24.71 -8.59,8.95 -17.19,18.98 -26.14,30.08l0.36 0c-9.67,11.82 -19.7,25.43 -29.37,40.11 -10.02,14.68 -19.33,30.8 -29,48.7 -9.31,17.91 -18.27,37.24 -27.22,58.01 -8.59,21.13 -16.83,43.69 -24.35,68.04 -0.36,1.08 -0.72,2.15 -1.79,3.94l0.36 0c-0.36,0 -0.36,0.36 -0.72,0.72 -0.36,0.36 -0.36,0.72 -0.72,1.43l-1.07 1.08 0.72 -1.79c-0.36,0.71 -1.08,1.07 -1.79,1.79 -0.72,0.71 -1.44,1.43 -1.79,1.79 -1.08,0 -1.79,0.35 -2.87,0.35 -1.07,0 -1.79,0 -2.51,0 -1.79,-0.71 -3.22,-1.79 -4.29,-3.22l0.35 0.36c-0.35,0 -0.35,-0.36 -0.35,-0.36 0,0 0,0 0,0 -0.36,-0.36 -0.72,-0.71 -1.08,-1.07 -0.36,-0.36 -0.36,-1.08 -0.36,-1.43 0,0 0,0 0.36,0.35 -0.36,-0.35 -0.36,-0.71 -0.36,-0.71l0 -0.36c0,0 0,-0.36 -0.35,-0.36 0,0 0,0 0,0l0 0.36c-0.36,-0.72 -0.36,-1.08 -0.36,-1.43 0,-0.36 0,-0.72 0,-1.08 0,-0.36 0,-0.71 0,-1.07l0 -3.94c0,-0.36 0,-0.72 0,-1.08 0,-0.35 0,-0.71 0,-1.07 0.36,-2.15 0.36,-3.94 0.71,-5.73 0.36,-2.15 0.36,-3.94 0.72,-5.73 0.72,-3.58 1.43,-7.16 2.15,-10.38 0.72,-3.59 1.79,-6.81 2.51,-9.67 2.86,-12.18 5.73,-22.56 8.59,-31.52 2.87,-9.31 5.73,-17.9 8.24,-25.78 2.5,-7.88 5.37,-16.11 8.23,-24.71 1.08,-2.51 1.79,-5.01 2.87,-7.52 0.71,-2.51 1.43,-5.37 2.5,-7.88 2.87,-8.23 6.09,-17.54 9.67,-27.57 3.58,-10.39 7.88,-22.2 12.54,-35.45 4.65,-13.25 10.38,-28.29 16.11,-45.13 6.09,-16.83 13.25,-35.81 21.13,-57.29 2.15,-6.45 4.66,-12.89 6.8,-18.98 2.15,-6.09 4.66,-12.18 6.81,-18.26 0.71,-1.44 1.43,-3.23 2.15,-5.38 0.71,-1.79 1.43,-3.58 2.15,-5.73 -6.09,4.3 -11.82,8.6 -17.19,12.54 -5.38,3.94 -10.75,7.52 -16.12,11.1 -7.88,5.37 -15.4,10.38 -22.56,14.68 -7.16,4.66 -13.97,8.6 -20.41,11.82 -6.81,3.58 -13.25,6.8 -19.7,9.31 -1.79,0.72 -3.58,1.07 -5.37,1.43 -1.79,0.72 -3.58,1.08 -5.73,1.43 -1.07,0 -1.79,0 -3.22,0.36 -1.08,0 -2.15,0 -3.22,-0.36 -1.44,0 -2.87,-0.35 -3.94,-1.07 -1.44,-0.72 -2.87,-1.43 -3.94,-2.87l-0.72 -0.71c-0.71,-0.36 -1.07,-0.72 -1.43,-1.79l-0.72 -1.08 -0.36 -1.07c-0.35,-0.36 -0.35,-0.36 -0.35,-0.72 0,0 -0.36,-0.35 -0.36,-0.71 -0.72,-1.79 -1.08,-2.87 -1.08,-3.58 -0.35,-0.72 -0.35,-1.08 -0.35,-1.79 -0.36,-3.59 -0.36,-6.81 0,-10.03 0,-2.87 0.71,-5.37 1.07,-7.88 0.72,-2.15 1.43,-4.65 2.15,-6.8 1.07,-3.58 2.51,-7.17 3.94,-10.39 1.07,-2.86 2.51,-5.73 3.58,-8.59 0,0 0.36,-0.36 0.36,-0.36 0,0 0,-0.36 0,-0.72 2.5,-5.01 4.65,-8.95 6.09,-11.81 1.79,-2.87 2.86,-4.66 3.58,-5.73 1.43,-2.15 2.86,-4.3 4.29,-6.09 1.79,-1.79 3.23,-3.23 5.02,-4.3 1.43,-1.07 3.22,-1.79 4.29,-2.15 1.44,0 2.51,0 3.59,0.72 1.79,1.43 2.5,3.94 1.79,7.88 -0.36,3.58 -2.15,7.87 -4.66,12.17l0 0c0,0.36 -0.36,0.36 -0.36,0.72 -0.36,0 -0.36,0.36 -0.36,0.36 -0.71,1.07 -1.43,2.5 -2.5,3.94 -0.72,1.43 -2.15,3.58 -3.58,6.08 -1.08,1.44 -1.79,3.23 -2.87,5.37 -1.07,2.15 -2.15,4.3 -3.22,7.17 -1.43,2.5 -2.51,5.37 -3.94,8.95 -1.43,3.22 -2.51,7.16 -3.22,11.46 -0.36,1.07 -0.36,2.15 -0.72,3.22 0,0.72 0,1.79 0,2.15 0,1.07 0,2.15 0.36,3.22 0,0.72 0.36,1.79 0.71,2.51 0,0 0,0 0,0l0.36 0 1.79 0c1.44,0 2.87,0 3.94,-0.36 1.44,-0.36 2.87,-0.71 4.3,-1.43 6.45,-2.15 13.25,-5.37 20.41,-8.95 7.52,-3.94 15.04,-8.6 23.28,-13.61 7.88,-4.66 16.83,-10.39 26.5,-16.83 9.67,-6.81 19.69,-13.61 30.08,-21.13l2.15 -1.79c1.07,-0.72 2.15,-1.43 3.22,-2.15 1.07,-0.72 1.79,-1.43 2.87,-2.15 0,0 0,0 0,0 0.35,-0.36 0.35,-0.36 0.35,-0.36l0.36 -1.07 0.36 0.72c0,0 0.36,-0.36 1.07,-0.72l1.08 -0.72c0,-0.35 0.71,-0.71 1.43,-1.43 0.72,-0.72 1.08,-1.07 1.08,-1.07 1.79,1.43 3.22,2.5 3.93,3.22 0.72,0.36 1.08,0.72 1.44,1.07 0.35,0 0.35,0 0.35,0.36 0.36,0 0.36,0 1.08,0.36 -0.36,1.07 -0.72,2.15 -1.08,2.86 -0.35,0.72 -0.71,1.8 -1.07,2.51 -0.36,0.72 -0.72,1.43 -0.72,1.43l0.36 0 -0.36 0.36c0,0.36 0,0.72 -0.35,0.72 -0.36,1.43 -0.72,2.51 -1.08,3.58 -0.36,0.72 -1.07,2.15 -1.43,3.22 -0.72,2.15 -1.79,4.3 -2.51,6.45 -0.71,2.15 -1.79,4.65 -2.5,6.8 -2.87,6.81 -5.73,13.97 -8.6,21.13 -2.51,7.52 -5.73,15.04 -8.59,22.92 -7.52,19.69 -13.97,37.24 -19.7,53 -6.09,15.76 -11.1,30.44 -15.76,43.33 -4.65,13.25 -8.59,25.07 -12.17,35.45 -3.58,10.74 -6.8,20.41 -9.67,29.37 -2.86,8.59 -5.37,16.83 -7.52,24.35 -2.51,7.16 -4.66,14.32 -6.45,20.77l0 0c-1.07,3.94 -2.14,8.23 -3.58,12.17 -1.07,3.94 -2.15,8.24 -3.22,12.18 3.94,-9.31 7.88,-17.55 11.46,-25.43 3.94,-7.52 7.52,-14.68 11.1,-21.48 4.3,-8.6 8.6,-16.12 12.53,-23.28 3.94,-7.16 7.88,-13.61 11.82,-19.7 3.58,-6.08 7.52,-11.81 11.1,-17.18 3.58,-5.73 7.17,-11.11 10.75,-16.48 3.94,-5.37 7.87,-10.74 11.81,-16.47 4.3,-5.37 8.6,-11.1 13.61,-17.19 15.76,-19.34 30.44,-35.45 43.69,-48.7 13.61,-13.61 25.78,-24.71 36.53,-34.02 10.74,-9.31 20.05,-16.83 27.57,-22.92 7.88,-6.09 14.68,-11.1 20.41,-15.4 5.37,-3.94 10.03,-7.16 13.97,-10.03 3.94,-2.5 7.16,-4.65 10.03,-6.8 3.22,-1.79 5.73,-3.58 8.23,-5.37 2.51,-1.43 5.02,-3.22 8.24,-5.01zm-290.42 375.29c0,0 0,0.36 0.35,0.36l0 0.36c-0.35,-0.36 -0.35,-0.36 -0.35,-0.72z"/>
  <path class="fil7 str4" d="M8891.28 14591.96c37.33,0 67.59,30.26 67.59,67.59 0,37.33 -30.26,67.59 -67.59,67.59 -37.33,0 -67.59,-30.26 -67.59,-67.59 0,-37.33 30.26,-67.59 67.59,-67.59z"/>
  <path class="fil7 str4" d="M8607.43 14115.77c64.85,0 117.41,52.56 117.41,117.41 0,64.86 -52.56,117.42 -117.41,117.42 -64.86,0 -117.42,-52.56 -117.42,-117.42 0,-64.85 52.56,-117.41 117.42,-117.41z"/>
  <path class="fil7 str4" d="M11869.34 15945.59c32.88,0 59.53,26.65 59.53,59.53 0,32.88 -26.65,59.53 -59.53,59.53 -32.88,0 -59.53,-26.65 -59.53,-59.53 0,-32.88 26.65,-59.53 59.53,-59.53z"/>
  <path class="fil7 str4" d="M9622.75 13309.2c30.44,0 55.11,24.67 55.11,55.12 0,30.44 -24.67,55.11 -55.11,55.11 -30.45,0 -55.12,-24.67 -55.12,-55.11 0,-30.45 24.67,-55.12 55.12,-55.12z"/>
 </g>
</svg>
